<?xml version="1.0" encoding="UTF-8"?>
<svg xmlns="http://www.w3.org/2000/svg" viewBox="0 0 428.01 252.51">
  <defs>
    <style>
      .cls-1 {
        stroke: #c31d81;
        stroke-width: 6px;
      }

      .cls-1, .cls-2 {
        fill: none;
        stroke-miterlimit: 10;
      }

      .cls-3 {
        fill: #c31d81;
      }

      .cls-2 {
        stroke: #4e2567;
        stroke-width: 3px;
      }
    </style>
  </defs>
  <g id="Camada_2" data-name="Camada 2">
    <g>
      <polyline class="cls-1" points="164.55 129.81 164.55 8.34 264.96 129.81 264.96 8.34"/>
      <path class="cls-3" d="m192.1,108.41c3.92,0,7.68-3.45,7.5-7.5s-3.3-7.5-7.5-7.5c-3.92,0-7.68,3.45-7.5,7.5s3.3,7.5,7.5,7.5h0Z"/>
      <path class="cls-3" d="m240.22,61.02c3.92,0,7.68-3.45,7.5-7.5s-3.3-7.5-7.5-7.5c-3.92,0-7.68,3.45-7.5,7.5s3.3,7.5,7.5,7.5h0Z"/>
    </g>
  </g>
  <g id="Camada_3" data-name="Camada 3">
    <g>
      <polyline class="cls-2" points="1.5 247.5 1.5 195.71 45.58 247.5 45.58 195.71"/>
      <g>
        <polyline class="cls-2" points="106.93 195.71 71.3 195.71 71.3 224.73 71.3 247.5 106.93 247.5"/>
        <line class="cls-2" x1="71.3" y1="235.38" x2="106.93" y2="235.38"/>
        <line class="cls-2" x1="71.3" y1="224.73" x2="106.93" y2="224.73"/>
      </g>
      <path class="cls-2" d="m131.74,247.5v-50.33h33.06c.94.75,10.75,8.87,9.92,22.04-.71,11.22-8.62,17.71-9.92,18.73-10.41-.12-20.82-.24-31.22-.37"/>
      <polyline class="cls-2" points="217.13 247.5 217.13 197.17 195.09 197.17 238.81 197.17"/>
      <path class="cls-2" d="m262.68,197.17v36.73c2.22,8.64,10.2,14.47,18.73,13.96,7.78-.47,14.55-6.12,16.53-13.96v-36.73"/>
      <polyline class="cls-2" points="322.57 248.44 322.57 196.64 366.65 248.44 366.65 196.64"/>
      <g>
        <polyline class="cls-2" points="428.01 196.64 392.37 196.64 392.37 225.66 392.37 248.44 428.01 248.44"/>
        <line class="cls-2" x1="392.37" y1="236.31" x2="428.01" y2="236.31"/>
        <line class="cls-2" x1="392.37" y1="225.66" x2="428.01" y2="225.66"/>
      </g>
    </g>
  </g>
</svg>