<?xml version="1.0" encoding="UTF-8"?>
<svg id="Camada_2" data-name="Camada 2" xmlns="http://www.w3.org/2000/svg" viewBox="0 0 428.01 364.55">
  <defs>
    <style>
      .cls-1 {
        fill: #c31d81;
      }

      .cls-2 {
        fill: none;
        stroke: #c31d81;
        stroke-miterlimit: 10;
        stroke-width: 7px;
      }
    </style>
  </defs>
  <polyline class="cls-2" points="72.12 354.82 72.12 9.73 357.38 354.82 357.38 9.73"/>
  <path class="cls-1" d="m150.4,290.22c4.49,0,9.2-1.95,12.37-5.13,1.71-1.59,2.91-3.46,3.62-5.63,1.1-2.09,1.6-4.33,1.51-6.74-.2-4.53-1.69-9.22-5.13-12.37s-7.63-5.13-12.37-5.13c-4.49,0-9.2,1.95-12.37,5.13-1.71,1.59-2.91,3.46-3.62,5.63-1.1,2.09-1.6,4.33-1.51,6.74.2,4.53,1.69,9.22,5.13,12.37s7.63,5.13,12.37,5.13h0Z"/>
  <path class="cls-1" d="m287.11,155.59c4.49,0,9.2-1.95,12.37-5.13,1.71-1.59,2.91-3.46,3.62-5.63,1.1-2.09,1.6-4.33,1.51-6.74-.2-4.53-1.69-9.22-5.13-12.37s-7.63-5.13-12.37-5.13c-4.49,0-9.2,1.95-12.37,5.13-1.71,1.59-2.91,3.46-3.62,5.63-1.1,2.09-1.6,4.33-1.51,6.74.2,4.53,1.69,9.22,5.13,12.37s7.63,5.13,12.37,5.13h0Z"/>
</svg>